<svg width="419" height="84" viewBox="0 0 419 84" fill="none" xmlns="http://www.w3.org/2000/svg">
<g clip-path="url(#clip0_1324_5702)">
<path d="M223.511 14.9604C226.786 14.9604 229.441 12.3164 229.441 9.05496C229.441 5.79349 226.786 3.14955 223.511 3.14955C220.235 3.14955 217.58 5.79349 217.58 9.05496C217.58 12.3164 220.235 14.9604 223.511 14.9604Z" fill="#29292D"/>
<path d="M152.163 76.2478H175.879C176.209 76.0259 176.533 75.7969 176.849 75.5535H151.186C151.502 75.7969 151.825 76.0188 152.156 76.2478H152.163Z" fill="#29292D"/>
<path d="M151.035 27.7304H154.694V47.3006C154.694 50.2067 155.305 52.8194 156.527 55.1458C157.749 57.4722 159.431 59.3046 161.58 60.6504C163.73 61.9961 166.102 62.6689 168.704 62.6689H170.135C171.515 62.6689 172.644 62.2967 173.514 61.5594C174.391 60.8222 174.829 59.8701 174.829 58.7105C174.829 57.5509 174.498 56.5989 173.837 55.8616C173.176 55.1243 172.363 54.7521 171.407 54.7521H168.704C167.008 54.7521 165.57 54.0363 164.405 52.6118C163.241 51.1874 162.659 49.4193 162.659 47.3006V27.7304H169.423C170.537 27.7304 171.436 27.4154 172.126 26.7784C172.816 26.1484 173.161 25.3539 173.161 24.4019C173.161 23.3425 172.816 22.4978 172.126 21.8679C171.436 21.238 170.537 20.9159 169.423 20.9159H162.659V9.50592C162.659 8.34632 162.285 7.39429 161.544 6.65701C160.804 5.91973 159.848 5.54751 158.676 5.54751C157.504 5.54751 156.555 5.91973 155.808 6.65701C155.067 7.39429 154.694 8.34632 154.694 9.50592V20.9159H151.035C149.92 20.9159 149.014 21.2308 148.332 21.8679C147.641 22.505 147.296 23.3496 147.296 24.4019C147.296 25.3539 147.641 26.1484 148.332 26.7784C149.022 27.4154 149.92 27.7304 151.035 27.7304Z" fill="#29292D"/>
<path d="M362.986 37.9879L370.692 51.8817V29.2694C370.282 30.157 369.808 31.0088 369.269 31.832C367.623 34.3373 365.516 36.3988 362.986 37.9879Z" fill="#29292D"/>
<path d="M417.886 1.90405C417.146 1.16677 416.161 0.794548 414.939 0.794548C414.903 0.794548 414.867 0.801706 414.824 0.801706C414.781 0.801706 414.745 0.78739 414.709 0.78739C414.249 0.78739 413.81 0.887603 413.386 1.05224C413.364 1.0594 413.343 1.06655 413.321 1.07371C413.185 1.13098 413.055 1.20256 412.919 1.27414C412.796 1.33856 412.674 1.40298 412.559 1.48172C412.466 1.54615 412.372 1.63204 412.279 1.70362C412.2 1.76805 412.114 1.82531 412.034 1.89689C412.02 1.91121 412.013 1.92552 411.999 1.93984C411.948 1.98995 390.785 23.0347 390.785 23.0347L369.729 2.06868C369.729 2.06868 369.707 2.05437 369.693 2.04005C369.65 1.98995 369.621 1.93984 369.571 1.88973C369.125 1.45309 368.593 1.15961 367.982 0.980658C367.616 0.85897 367.249 0.780231 366.861 0.780231C366.825 0.780231 366.782 0.794548 366.746 0.794548C366.703 0.794548 366.674 0.78739 366.631 0.78739C365.466 0.78739 364.496 1.15961 363.726 1.89689C363.655 1.96847 363.604 2.04721 363.54 2.11879C366.041 3.8582 368.083 6.05573 369.621 8.69706C370.915 10.9232 371.785 13.3641 372.231 15.9983L385.041 28.754L387.672 31.3738C389.39 33.0846 392.165 33.0846 393.883 31.3738L396.521 28.754L410.877 14.4593V58.6246C410.877 59.7842 411.258 60.7506 412.027 61.5165C412.796 62.2824 413.767 62.6689 414.932 62.6689C416.096 62.6689 417.131 62.2896 417.879 61.5165C418.619 60.7506 418.993 59.7842 418.993 58.6246V4.8317C418.993 3.61483 418.619 2.64133 417.879 1.89689L417.886 1.90405Z" fill="#29292D"/>
<path d="M380.735 75.9042L359.061 36.8426C362.353 35.368 364.948 33.1705 366.861 30.2643C368.773 27.3582 369.729 24.0297 369.729 20.2788C369.729 16.528 368.866 13.0993 367.141 10.1358C365.416 7.17955 363 4.88181 359.902 3.24261C356.796 1.60341 353.281 0.787388 349.356 0.787388H335.036C334.972 0.787388 334.921 0.801704 334.857 0.801704C334.799 0.801704 334.742 0.787388 334.677 0.787388C333.512 0.787388 332.527 1.17392 331.729 1.93984C330.931 2.70575 330.536 3.69357 330.536 4.91044V27.6516H293.615V4.91044C293.615 3.69357 293.227 2.70575 292.465 1.93984C291.696 1.17392 290.704 0.787388 289.482 0.787388C288.259 0.787388 287.332 1.17392 286.534 1.93984C285.736 2.70575 285.341 3.69357 285.341 4.91044V58.553C285.341 59.7127 285.736 60.6933 286.534 61.4807C287.332 62.2752 288.31 62.6689 289.482 62.6689C290.653 62.6689 291.696 62.2752 292.465 61.4807C293.234 60.6861 293.615 59.7127 293.615 58.553V34.9386H330.536V58.553C330.536 59.7127 330.931 60.6933 331.729 61.4807C332.527 62.2752 333.505 62.6689 334.677 62.6689C334.742 62.6689 334.799 62.6546 334.857 62.6546C334.914 62.6546 334.972 62.6689 335.029 62.6689C336.251 62.6689 337.243 62.2752 338.012 61.4807C338.782 60.6861 339.163 59.7127 339.163 58.553V38.8254H350.779L373.963 80.2635C374.811 81.5877 376.005 82.2463 377.543 82.2463C378.765 82.2463 379.728 81.8884 380.447 81.1797C381.166 80.4639 381.518 79.5835 381.518 78.5241C381.518 77.6293 381.252 76.756 380.72 75.9114L380.735 75.9042ZM351.16 29.3982H339.17V9.39139H351.16C356.71 9.39139 361.203 13.8723 361.203 19.3912C361.203 24.9173 356.703 29.3911 351.16 29.3911V29.3982Z" fill="#29292D"/>
<path d="M19.2944 10.6942C22.7666 8.52527 26.5766 7.4444 30.7101 7.4444C33.9953 7.4444 36.6767 7.85241 38.747 8.67559C40.8174 9.49161 42.938 10.8302 45.1162 12.6769C45.9645 13.3641 46.8918 13.7077 47.8982 13.7077C48.9047 13.7077 49.7961 13.3641 50.5652 12.6769C51.3344 11.9898 51.7154 11.1165 51.7154 10.0643C51.7154 9.37708 51.6076 8.78296 51.3991 8.28189C51.1835 7.78083 50.7593 7.29408 50.1267 6.81449C47.1003 4.3879 44.117 2.64133 41.1768 1.58193C38.2295 0.522539 34.7429 0 30.7101 0C25.031 0 19.848 1.4173 15.1538 4.23758C10.4595 7.06502 6.75737 10.8946 4.05442 15.7263C1.35147 20.558 0 25.8836 0 31.696C0 37.5083 1.35147 42.9198 4.06161 47.7801C6.76456 52.6405 10.4667 56.4701 15.1609 59.2689C19.8552 62.0677 25.0382 63.4706 30.7173 63.4706C37.985 63.4706 44.4836 61.1729 50.213 56.5774C51.0613 55.7328 51.4854 54.7521 51.4854 53.6498C51.4854 52.5474 51.1547 51.5524 50.4934 50.8366C49.832 50.1208 48.9909 49.7701 47.9845 49.7701C47.1362 49.7701 46.2592 50.085 45.3606 50.7221C40.6952 54.2081 35.8141 55.9547 30.7173 55.9547C26.5766 55.9547 22.7738 54.8738 19.3016 52.7049C15.8295 50.536 13.069 47.6084 11.0275 43.9076C8.98586 40.2141 7.96507 36.1411 7.96507 31.7031C7.96507 27.2651 8.98586 23.2637 11.0275 19.5415C13.069 15.8193 15.8295 12.8774 19.3016 10.7085L19.2944 10.6942Z" fill="#29292D"/>
<path d="M87.3715 21.7104C84.4026 19.9138 80.8729 19.019 76.7897 19.019C72.7066 19.019 68.9541 19.9567 65.6904 21.8321C62.4267 23.7075 59.8819 26.3202 58.0488 29.6774C56.2157 33.0345 55.3027 36.8211 55.3027 41.0444C55.3027 45.2677 56.2732 49.0471 58.207 52.3756C60.1407 55.7041 62.8365 58.3097 66.2799 60.1779C69.7304 62.0534 73.6267 62.9911 77.9759 62.9911C80.4128 62.9911 82.972 62.5401 85.6534 61.6453C88.3348 60.7506 90.5704 59.5838 92.3748 58.1594C93.2231 57.5223 93.6472 56.7349 93.6472 55.7829C93.6472 54.7807 93.1728 53.8788 92.2167 53.0914C91.6344 52.5617 90.8364 52.2969 89.83 52.2969C88.8236 52.2969 87.9466 52.5904 87.2061 53.1702C86.0919 54.0148 84.6757 54.7306 82.9504 55.3104C81.2252 55.8902 79.5718 56.1837 77.9759 56.1837C73.943 56.1837 70.5356 55.0456 67.7535 52.7765C64.9715 50.5074 63.2822 47.5225 62.6999 43.8217H92.9355C93.9995 43.8217 94.8693 43.4925 95.5594 42.8339C96.2495 42.1754 96.5946 41.345 96.5946 40.3357C96.5946 36.1626 95.8038 32.469 94.2079 29.2407C92.6192 26.0196 90.3332 23.5071 87.3643 21.7104H87.3715ZM62.7862 37.4797C63.426 33.9436 64.95 31.1161 67.3582 29.0045C69.7736 26.8929 72.915 25.8335 76.7897 25.8335C80.2906 25.8335 83.1302 26.8929 85.3011 29.0045C87.4721 31.1161 88.802 33.9436 89.2765 37.4797H62.779H62.7862Z" fill="#29292D"/>
<path d="M259.238 26.1484C261.251 26.1484 263.041 26.4777 264.608 27.1363C266.176 27.7948 267.62 28.8399 268.943 30.2643C269.791 31.2164 270.827 31.6888 272.049 31.6888C272.739 31.6888 273.35 31.5027 273.882 31.1305C275.046 30.3359 275.636 29.3624 275.636 28.1957C275.636 27.4011 275.37 26.7139 274.838 26.1341C270.697 21.3812 265.5 19.0047 259.238 19.0047C255.098 19.0047 251.388 19.9424 248.096 21.8178C244.804 23.6932 242.244 26.3059 240.418 29.6631C238.585 33.0202 237.672 36.8068 237.672 41.0301C237.672 45.2533 238.614 48.8897 240.498 52.2396C242.381 55.5968 244.99 58.2238 248.333 60.1207C251.676 62.0247 255.443 62.9767 259.634 62.9767C265.363 62.9767 270.136 61.2087 273.954 57.6654C274.593 57.0284 274.91 56.3197 274.91 55.5252C274.91 54.4658 274.407 53.5209 273.4 52.6763C272.76 52.2038 272.07 51.9605 271.33 51.9605C270.374 51.9605 269.396 52.3327 268.39 53.07C266.161 54.9167 263.243 55.8401 259.634 55.8401C256.873 55.8401 254.422 55.2031 252.273 53.9361C250.123 52.6691 248.455 50.9154 247.262 48.6677C246.069 46.4201 245.472 43.8718 245.472 41.0229C245.472 36.5348 246.744 32.9271 249.289 30.2071C251.834 27.487 255.148 26.127 259.238 26.127V26.1484Z" fill="#29292D"/>
<path d="M211.498 20.1285C209.91 19.2839 207.703 18.8615 204.892 18.8615C202.239 18.8615 199.745 19.3912 197.416 20.4435C195.079 21.5029 193.117 22.9559 191.528 24.8027V23.2995C191.528 20.6582 190.198 19.3411 187.553 19.3411C186.28 19.3411 185.295 19.6847 184.605 20.3719C183.915 21.0591 183.57 22.0326 183.57 23.3067V57.2145C183.038 67.5722 174.448 75.6895 164.024 75.6895C158.259 75.6895 152.695 73.0983 149.007 68.6889C146.929 66.2122 145.506 63.213 144.888 60.0419C144.327 57.193 144.593 54.251 144.593 51.3592V39.2262C144.593 34.9457 143.766 31.2879 142.127 28.2529C140.481 25.2179 138.202 22.9058 135.284 21.3167C132.365 19.7348 129.08 18.9403 125.414 18.9403C122.761 18.9403 120.267 19.4055 117.937 20.3289C115.601 21.2523 113.588 22.5623 111.892 24.2516V23.3783C111.892 22.1614 111.518 21.1879 110.778 20.4435C110.037 19.7062 109.052 19.334 107.83 19.334C106.608 19.334 105.695 19.7062 104.926 20.4435C104.157 21.1807 103.769 22.1614 103.769 23.3783V58.7177C103.769 59.8773 104.157 60.8436 104.926 61.6095C105.695 62.3755 106.666 62.762 107.83 62.762C108.995 62.762 110.03 62.3826 110.778 61.6095C111.518 60.8436 111.892 59.8773 111.892 58.7177V36.3773C111.892 34.4733 112.409 32.7625 113.445 31.2307C114.48 29.6989 115.91 28.482 117.743 27.5872C119.576 26.6925 121.604 26.2415 123.832 26.2415C127.649 26.2415 130.712 27.3367 133.019 29.5271C135.327 31.7174 136.484 34.9529 136.484 39.2334V49.1688C136.484 54.7306 136.132 60.2495 138.051 65.5823C139.971 70.915 143.472 75.575 148.094 78.882C152.724 82.189 158.331 84.0215 164.031 84.0215C178.682 84.0215 190.982 71.6309 191.607 57.193C191.916 50.0421 191.535 42.7623 191.535 35.5899C191.535 32.6337 192.7 30.2787 195.036 28.5392C197.372 26.7927 200.449 25.9265 204.266 25.9265C205.589 25.9265 207.314 26.1127 209.435 26.4849C209.967 26.5922 210.362 26.6424 210.628 26.6424C212.275 26.6424 213.331 25.7977 213.813 24.1084C213.863 23.9509 213.892 23.6861 213.892 23.3138C213.892 22.0469 213.094 20.9875 211.505 20.1428L211.498 20.1285Z" fill="#29292D"/>
<path d="M223.913 19.334C222.749 19.334 221.778 19.7062 221.009 20.4435C220.24 21.1807 219.859 22.1614 219.859 23.3783V58.6389C219.859 59.7985 220.24 60.7649 221.009 61.5308C221.778 62.2967 222.749 62.6833 223.913 62.6833C225.078 62.6833 226.113 62.3039 226.861 61.5308C227.601 60.7649 227.975 59.7985 227.975 58.6389V23.3783C227.975 22.1614 227.601 21.1879 226.861 20.4435C226.12 19.7062 225.135 19.334 223.913 19.334Z" fill="#29292D"/>
</g>
<defs>
<clipPath id="clip0_1324_5702">
<rect width="419" height="84" fill="white"/>
</clipPath>
</defs>
</svg>
