<svg width="127" height="26" viewBox="0 0 127 26" fill="none" xmlns="http://www.w3.org/2000/svg">
<g clip-path="url(#clip0_1324_5716)">
<path d="M67.7468 4.63058C68.7396 4.63058 69.5444 3.81222 69.5444 2.80272C69.5444 1.79322 68.7396 0.974854 67.7468 0.974854C66.754 0.974854 65.9492 1.79322 65.9492 2.80272C65.9492 3.81222 66.754 4.63058 67.7468 4.63058Z" fill="#00CDFE"/>
<path d="M46.121 23.6005H53.3093C53.4095 23.5318 53.5075 23.4609 53.6034 23.3856H45.8247C45.9206 23.4609 46.0186 23.5296 46.1189 23.6005H46.121Z" fill="#00CDFE"/>
<path d="M45.779 8.5832H46.8881V14.6406C46.8881 15.5402 47.0733 16.3489 47.4437 17.0689C47.8141 17.789 48.324 18.3562 48.9755 18.7727C49.627 19.1893 50.346 19.3975 51.1348 19.3975H51.5684C51.9867 19.3975 52.3288 19.2823 52.5925 19.0541C52.8583 18.8259 52.9912 18.5312 52.9912 18.1723C52.9912 17.8134 52.891 17.5187 52.6905 17.2905C52.4901 17.0623 52.2439 16.9471 51.9541 16.9471H51.1348C50.6206 16.9471 50.1848 16.7255 49.8318 16.2846C49.4788 15.8437 49.3023 15.2965 49.3023 14.6406V8.5832H51.3527C51.6904 8.5832 51.9628 8.48571 52.172 8.28852C52.3811 8.09355 52.4857 7.84762 52.4857 7.55295C52.4857 7.22504 52.3811 6.9636 52.172 6.76863C51.9628 6.57365 51.6904 6.47395 51.3527 6.47395H49.3023V2.9423C49.3023 2.58337 49.189 2.28869 48.9646 2.06049C48.7402 1.83228 48.4504 1.71707 48.0952 1.71707C47.74 1.71707 47.4524 1.83228 47.2258 2.06049C47.0014 2.28869 46.8881 2.58337 46.8881 2.9423V6.47395H45.779C45.4413 6.47395 45.1668 6.57144 44.9598 6.76863C44.7506 6.96581 44.646 7.22725 44.646 7.55295C44.646 7.84762 44.7506 8.09355 44.9598 8.28852C45.1689 8.48571 45.4413 8.5832 45.779 8.5832Z" fill="#00CDFE"/>
<path d="M110.022 11.7581L112.358 16.0586V9.05954C112.234 9.33427 112.09 9.59793 111.926 9.85272C111.427 10.6282 110.789 11.2663 110.022 11.7581Z" fill="#00CDFE"/>
<path d="M126.662 0.589334C126.438 0.361128 126.139 0.245917 125.769 0.245917C125.758 0.245917 125.747 0.248132 125.734 0.248132C125.721 0.248132 125.71 0.243701 125.699 0.243701C125.56 0.243701 125.427 0.27472 125.298 0.325678C125.292 0.327894 125.285 0.330109 125.279 0.332325C125.237 0.35005 125.198 0.372206 125.157 0.394362C125.12 0.414302 125.083 0.434242 125.048 0.458614C125.019 0.478554 124.991 0.505141 124.963 0.527297C124.939 0.547238 124.913 0.564962 124.889 0.587118C124.884 0.59155 124.882 0.595981 124.878 0.600412C124.862 0.615921 118.448 7.12977 118.448 7.12977L112.066 0.640293C112.066 0.640293 112.059 0.635861 112.055 0.63143C112.042 0.615921 112.033 0.600412 112.018 0.584903C111.883 0.449751 111.721 0.358912 111.536 0.303522C111.425 0.265857 111.314 0.241486 111.196 0.241486C111.185 0.241486 111.172 0.245917 111.161 0.245917C111.148 0.245917 111.14 0.243701 111.127 0.243701C110.774 0.243701 110.479 0.358912 110.246 0.587118C110.225 0.609274 110.209 0.633646 110.19 0.655802C110.948 1.19419 111.567 1.87438 112.033 2.69193C112.425 3.38098 112.689 4.1365 112.824 4.95184L116.707 8.90003L117.504 9.71094C118.025 10.2405 118.866 10.2405 119.387 9.71094L120.187 8.90003L124.538 4.47549V18.1457C124.538 18.5046 124.653 18.8037 124.886 19.0408C125.12 19.2779 125.414 19.3975 125.767 19.3975C126.12 19.3975 126.433 19.2801 126.66 19.0408C126.885 18.8037 126.998 18.5046 126.998 18.1457V1.49551C126.998 1.11886 126.885 0.81754 126.66 0.587118L126.662 0.589334Z" fill="#00CDFE"/>
<path d="M115.402 23.4942L108.832 11.4037C109.83 10.9473 110.617 10.2671 111.196 9.36753C111.776 8.468 112.066 7.43775 112.066 6.27678C112.066 5.11581 111.804 4.05454 111.281 3.13728C110.758 2.22224 110.026 1.51103 109.087 1.00366C108.146 0.496291 107.08 0.243713 105.891 0.243713H101.55C101.531 0.243713 101.515 0.248145 101.496 0.248145C101.478 0.248145 101.461 0.243713 101.441 0.243713C101.088 0.243713 100.79 0.363355 100.548 0.600424C100.306 0.837493 100.186 1.14324 100.186 1.5199V8.55884H88.9955V1.5199C88.9955 1.14324 88.8778 0.837493 88.6469 0.600424C88.4137 0.363355 88.113 0.243713 87.7426 0.243713C87.3722 0.243713 87.0911 0.363355 86.8492 0.600424C86.6074 0.837493 86.4875 1.14324 86.4875 1.5199V18.1236C86.4875 18.4825 86.6074 18.786 86.8492 19.0297C87.0911 19.2757 87.3874 19.3975 87.7426 19.3975C88.0978 19.3975 88.4137 19.2757 88.6469 19.0297C88.88 18.7838 88.9955 18.4825 88.9955 18.1236V10.8143H100.186V18.1236C100.186 18.4825 100.306 18.786 100.548 19.0297C100.79 19.2757 101.086 19.3975 101.441 19.3975C101.461 19.3975 101.478 19.3931 101.496 19.3931C101.513 19.3931 101.531 19.3975 101.548 19.3975C101.919 19.3975 102.219 19.2757 102.452 19.0297C102.686 18.7838 102.801 18.4825 102.801 18.1236V12.0174H106.322L113.349 24.8435C113.606 25.2533 113.968 25.4572 114.434 25.4572C114.805 25.4572 115.097 25.3464 115.315 25.1271C115.532 24.9055 115.639 24.633 115.639 24.3051C115.639 24.0281 115.559 23.7578 115.397 23.4964L115.402 23.4942ZM106.438 9.09944H102.803V2.90686H106.438C108.12 2.90686 109.482 4.29382 109.482 6.00204C109.482 7.71248 108.118 9.09723 106.438 9.09723V9.09944Z" fill="#00CDFE"/>
<path d="M5.8482 3.3101C6.90061 2.63877 8.05543 2.30422 9.30831 2.30422C10.3041 2.30422 11.1168 2.43051 11.7443 2.6853C12.3719 2.93788 13.0146 3.35219 13.6748 3.92382C13.932 4.13651 14.213 4.24286 14.5181 4.24286C14.8231 4.24286 15.0933 4.13651 15.3265 3.92382C15.5596 3.71112 15.6751 3.44082 15.6751 3.11513C15.6751 2.90243 15.6424 2.71853 15.5792 2.56344C15.5138 2.40835 15.3853 2.25769 15.1935 2.10925C14.2762 1.35816 13.372 0.817554 12.4808 0.489646C11.5874 0.161738 10.5307 0 9.30831 0C7.58697 0 6.01597 0.438688 4.59314 1.31163C3.17032 2.18679 2.04818 3.37213 1.22891 4.86766C0.409635 6.36319 0 8.01159 0 9.81065C0 11.6097 0.409635 13.2847 1.23108 14.7891C2.05036 16.2935 3.17249 17.4788 4.59532 18.3451C6.01815 19.2114 7.58915 19.6457 9.31049 19.6457C11.5134 19.6457 13.4831 18.9345 15.2197 17.5121C15.4768 17.2506 15.6054 16.9471 15.6054 16.6059C15.6054 16.2647 15.5051 15.9567 15.3047 15.7352C15.1042 15.5136 14.8493 15.405 14.5442 15.405C14.2871 15.405 14.0213 15.5025 13.7489 15.6997C12.3348 16.7787 10.8553 17.3193 9.31049 17.3193C8.05543 17.3193 6.90279 16.9847 5.85038 16.3134C4.79796 15.6421 3.96126 14.7359 3.34245 13.5905C2.72364 12.4472 2.41423 11.1865 2.41423 9.81287C2.41423 8.4392 2.72364 7.20068 3.34245 6.04857C3.96126 4.89646 4.79796 3.98585 5.85038 3.31453L5.8482 3.3101Z" fill="#00CDFE"/>
<path d="M26.4826 6.7199C25.5827 6.16379 24.5128 5.88684 23.2752 5.88684C22.0376 5.88684 20.9002 6.17708 19.911 6.75757C18.9218 7.33806 18.1504 8.14675 17.5948 9.18586C17.0392 10.225 16.7625 11.397 16.7625 12.7042C16.7625 14.0114 17.0566 15.1813 17.6427 16.2115C18.2289 17.2418 19.0459 18.0482 20.0896 18.6265C21.1355 19.207 22.3165 19.4972 23.6347 19.4972C24.3734 19.4972 25.1491 19.3577 25.9618 19.0807C26.7745 18.8038 27.4522 18.4426 27.9991 18.0017C28.2562 17.8045 28.3848 17.5608 28.3848 17.2661C28.3848 16.956 28.241 16.6768 27.9512 16.4331C27.7747 16.2691 27.5328 16.1871 27.2278 16.1871C26.9227 16.1871 26.6569 16.278 26.4325 16.4574C26.0947 16.7189 25.6655 16.9404 25.1425 17.1199C24.6196 17.2994 24.1185 17.3902 23.6347 17.3902C22.4124 17.3902 21.3796 17.0379 20.5363 16.3356C19.6931 15.6332 19.181 14.7093 19.0046 13.5639H28.1691C28.4915 13.5639 28.7552 13.462 28.9644 13.2581C29.1735 13.0543 29.2781 12.7973 29.2781 12.4849C29.2781 11.1932 29.0384 10.0499 28.5547 9.05071C28.0732 8.05369 27.3803 7.27602 26.4804 6.7199H26.4826ZM19.0307 11.6009C19.2246 10.5064 19.6865 9.6312 20.4165 8.9776C21.1486 8.32399 22.1008 7.99609 23.2752 7.99609C24.3363 7.99609 25.197 8.32399 25.855 8.9776C26.5131 9.6312 26.9162 10.5064 27.06 11.6009H19.0285H19.0307Z" fill="#00CDFE"/>
<path d="M78.5758 8.09358C79.1859 8.09358 79.7284 8.1955 80.2034 8.39933C80.6784 8.60317 81.1164 8.92664 81.5173 9.36755C81.7744 9.66222 82.0882 9.80845 82.4586 9.80845C82.6678 9.80845 82.853 9.75084 83.0142 9.63563C83.3672 9.3897 83.5459 9.08838 83.5459 8.72724C83.5459 8.48131 83.4653 8.26861 83.304 8.08915C82.049 6.61799 80.4736 5.88242 78.5758 5.88242C77.3207 5.88242 76.1964 6.17266 75.1985 6.75314C74.2005 7.33363 73.4249 8.14232 72.8714 9.18144C72.3158 10.2205 72.0391 11.3926 72.0391 12.6998C72.0391 14.007 72.3245 15.1325 72.8954 16.1694C73.4662 17.2085 74.2572 18.0217 75.2704 18.6088C76.2836 19.1981 77.4253 19.4928 78.6956 19.4928C80.4322 19.4928 81.879 18.9456 83.036 17.8488C83.2299 17.6517 83.3258 17.4323 83.3258 17.1864C83.3258 16.8585 83.1733 16.566 82.8683 16.3046C82.6743 16.1583 82.4652 16.083 82.2407 16.083C81.9509 16.083 81.6546 16.1982 81.3496 16.4264C80.6741 16.9981 79.7895 17.2839 78.6956 17.2839C77.8589 17.2839 77.1159 17.0867 76.4644 16.6945C75.8129 16.3024 75.3074 15.7595 74.9457 15.0638C74.584 14.3681 74.4032 13.5794 74.4032 12.6976C74.4032 11.3084 74.7888 10.1917 75.5602 9.34982C76.3315 8.5079 77.336 8.08693 78.5758 8.08693V8.09358Z" fill="#00CDFE"/>
<path d="M64.1058 6.23026C63.6243 5.96882 62.9553 5.8381 62.1034 5.8381C61.2994 5.8381 60.5433 6.00206 59.8373 6.32775C59.1292 6.65566 58.5343 7.10542 58.0528 7.67705V7.21177C58.0528 6.39422 57.6497 5.98655 56.8478 5.98655C56.4622 5.98655 56.1637 6.0929 55.9545 6.30559C55.7453 6.51829 55.6407 6.81961 55.6407 7.21399V17.7093C55.4795 20.9152 52.8757 23.4277 49.7163 23.4277C47.9688 23.4277 46.2823 22.6257 45.1645 21.2609C44.5348 20.4943 44.1034 19.5659 43.916 18.5844C43.7461 17.7026 43.8267 16.792 43.8267 15.8969V12.1415C43.8267 10.8165 43.5761 9.68438 43.0793 8.74496C42.5803 7.80555 41.8896 7.08992 41.005 6.59805C40.1203 6.10841 39.1246 5.86248 38.0133 5.86248C37.2093 5.86248 36.4532 6.00649 35.7473 6.2923C35.0391 6.57811 34.429 6.98357 33.9148 7.50645V7.23614C33.9148 6.85949 33.8015 6.55817 33.5771 6.32775C33.3526 6.09954 33.0541 5.98433 32.6837 5.98433C32.3133 5.98433 32.0366 6.09954 31.8034 6.32775C31.5703 6.55596 31.4526 6.85949 31.4526 7.23614V18.1745C31.4526 18.5335 31.5703 18.8326 31.8034 19.0696C32.0366 19.3067 32.3307 19.4263 32.6837 19.4263C33.0367 19.4263 33.3505 19.3089 33.5771 19.0696C33.8015 18.8326 33.9148 18.5335 33.9148 18.1745V11.2597C33.9148 10.6703 34.0717 10.1408 34.3854 9.66665C34.6992 9.19251 35.1328 8.81586 35.6884 8.53891C36.2441 8.26196 36.8585 8.12238 37.534 8.12238C38.691 8.12238 39.6192 8.46137 40.3186 9.13934C41.0181 9.81731 41.3689 10.8188 41.3689 12.1437V15.2189C41.3689 16.9404 41.2621 18.6487 41.8439 20.2993C42.4256 21.9499 43.4868 23.3923 44.8878 24.4159C46.291 25.4395 47.9906 26.0067 49.7184 26.0067C54.1591 26.0067 57.8872 22.1715 58.0767 17.7026C58.1704 15.4892 58.055 13.236 58.055 11.0159C58.055 10.1009 58.4079 9.37198 59.1161 8.83359C59.8242 8.29298 60.7568 8.0249 61.9138 8.0249C62.3147 8.0249 62.8377 8.0825 63.4804 8.19771C63.6417 8.23095 63.7615 8.24646 63.8421 8.24646C64.3411 8.24646 64.6614 7.98502 64.8074 7.46213C64.8227 7.41339 64.8314 7.33141 64.8314 7.2162C64.8314 6.82404 64.5895 6.49614 64.108 6.2347L64.1058 6.23026Z" fill="#00CDFE"/>
<path d="M67.8688 5.98431C67.5158 5.98431 67.2217 6.09952 66.9885 6.32773C66.7554 6.55594 66.6399 6.85947 66.6399 7.23612V18.1501C66.6399 18.5091 66.7554 18.8082 66.9885 19.0452C67.2217 19.2823 67.5158 19.402 67.8688 19.402C68.2218 19.402 68.5355 19.2845 68.7621 19.0452C68.9866 18.8082 69.0999 18.5091 69.0999 18.1501V7.23612C69.0999 6.85947 68.9866 6.55815 68.7621 6.32773C68.5377 6.09952 68.2392 5.98431 67.8688 5.98431Z" fill="#00CDFE"/>
</g>
<defs>
<clipPath id="clip0_1324_5716">
<rect width="127" height="26" fill="white"/>
</clipPath>
</defs>
</svg>
