<svg width="31" height="30" viewBox="0 0 31 30" fill="none" xmlns="http://www.w3.org/2000/svg">
<path d="M12.7426 26.7C13.8683 24.425 15.3692 22.9063 17.2454 22.1438C19.1215 21.3813 20.7225 21 22.0483 21C22.6236 21 23.1865 21.05 23.7368 21.15C24.2872 21.25 24.825 21.375 25.3503 21.525C25.9507 20.575 26.426 19.55 26.7762 18.45C27.1264 17.35 27.3015 16.2 27.3015 15C27.3015 11.65 26.1383 8.81253 23.8119 6.48753C21.4854 4.16253 18.6462 3.00003 15.2942 3.00003C11.9421 3.00003 9.10291 4.16253 6.77649 6.48753C4.45007 8.81253 3.28686 11.65 3.28686 15C3.28686 16.125 3.4307 17.2 3.71838 18.225C4.00605 19.25 4.43756 20.2 5.01291 21.075C6.03854 20.575 7.10169 20.1875 8.20236 19.9125C9.30303 19.6375 10.4162 19.5 11.5419 19.5C12.3424 19.5 13.1116 19.5688 13.8495 19.7063C14.5875 19.8438 15.3192 20.025 16.0446 20.25C15.4693 20.55 14.9252 20.9 14.4124 21.3C13.8996 21.7 13.418 22.125 12.9678 22.575C12.6676 22.525 12.4112 22.5 12.1985 22.5H11.5419C10.7414 22.5 9.94717 22.5875 9.15919 22.7625C8.37121 22.9375 7.6145 23.2 6.88906 23.55C7.68954 24.35 8.58384 25.0188 9.57194 25.5563C10.56 26.0938 11.6169 26.475 12.7426 26.7ZM15.2942 30C13.2179 30 11.2667 29.6063 9.44061 28.8188C7.6145 28.0313 6.02603 26.9625 4.67521 25.6125C3.32439 24.2625 2.25498 22.675 1.467 20.85C0.679024 19.025 0.285034 17.075 0.285034 15C0.285034 12.925 0.679024 10.975 1.467 9.15003C2.25498 7.32503 3.32439 5.73753 4.67521 4.38753C6.02603 3.03753 7.6145 1.96878 9.44061 1.18128C11.2667 0.393781 13.2179 3.05176e-05 15.2942 3.05176e-05C17.3704 3.05176e-05 19.3216 0.393781 21.1477 1.18128C22.9739 1.96878 24.5623 3.03753 25.9131 4.38753C27.264 5.73753 28.3334 7.32503 29.1213 9.15003C29.9093 10.975 30.3033 12.925 30.3033 15C30.3033 17.075 29.9093 19.025 29.1213 20.85C28.3334 22.675 27.264 24.2625 25.9131 25.6125C24.5623 26.9625 22.9739 28.0313 21.1477 28.8188C19.3216 29.6063 17.3704 30 15.2942 30ZM11.5419 17.25C10.091 17.25 8.85275 16.7375 7.82713 15.7125C6.8015 14.6875 6.28869 13.45 6.28869 12C6.28869 10.55 6.8015 9.31253 7.82713 8.28753C8.85275 7.26253 10.091 6.75003 11.5419 6.75003C12.9928 6.75003 14.231 7.26253 15.2567 8.28753C16.2823 9.31253 16.7951 10.55 16.7951 12C16.7951 13.45 16.2823 14.6875 15.2567 15.7125C14.231 16.7375 12.9928 17.25 11.5419 17.25ZM11.5419 14.25C12.1673 14.25 12.6988 14.0313 13.1366 13.5938C13.5744 13.1563 13.7933 12.625 13.7933 12C13.7933 11.375 13.5744 10.8438 13.1366 10.4063C12.6988 9.96878 12.1673 9.75003 11.5419 9.75003C10.9165 9.75003 10.3849 9.96878 9.94717 10.4063C9.5094 10.8438 9.29052 11.375 9.29052 12C9.29052 12.625 9.5094 13.1563 9.94717 13.5938C10.3849 14.0313 10.9165 14.25 11.5419 14.25ZM22.0483 18.75C20.9977 18.75 20.1096 18.3875 19.3842 17.6625C18.6587 16.9375 18.296 16.05 18.296 15C18.296 13.95 18.6587 13.0625 19.3842 12.3375C20.1096 11.6125 20.9977 11.25 22.0483 11.25C23.0989 11.25 23.987 11.6125 24.7124 12.3375C25.4379 13.0625 25.8006 13.95 25.8006 15C25.8006 16.05 25.4379 16.9375 24.7124 17.6625C23.987 18.3875 23.0989 18.75 22.0483 18.75Z" fill="#00D4E7"/>
</svg>
