<svg width="53" height="17" viewBox="0 0 53 17" fill="none" xmlns="http://www.w3.org/2000/svg">
<rect x="0.25" y="0.25" width="52.5" height="16.5" rx="2.75" fill="#00D4E7" fill-opacity="0.1"/>
<rect x="0.25" y="0.25" width="52.5" height="16.5" rx="2.75" stroke="#00D4E7" stroke-width="0.5"/>
<path d="M12.1339 12L14.7339 5.33H15.9039L18.4339 12H17.2739L15.0439 5.87L15.4639 5.83L13.2339 12H12.1339ZM13.4139 10.19L13.7339 9.29H16.9039L16.9939 10.19H13.4139ZM21.5154 12.1C21.2088 12.1 20.9088 12.0567 20.6154 11.97C20.3221 11.8833 20.0554 11.7433 19.8154 11.55C19.5821 11.35 19.3954 11.0867 19.2554 10.76C19.1154 10.4267 19.0454 10.0133 19.0454 9.52C19.0454 9.01333 19.1121 8.59 19.2454 8.25C19.3788 7.91 19.5621 7.64 19.7954 7.44C20.0288 7.23333 20.2921 7.08667 20.5854 7C20.8854 6.91333 21.1921 6.87 21.5054 6.87C21.7721 6.87 22.0388 6.89667 22.3054 6.95C22.5721 6.99667 22.8188 7.07 23.0454 7.17V8.11C22.8188 8.01 22.5921 7.93333 22.3654 7.88C22.1388 7.82 21.9021 7.79 21.6554 7.79C21.1354 7.79 20.7421 7.92 20.4754 8.18C20.2154 8.44 20.0854 8.86 20.0854 9.44C20.0854 10.04 20.2088 10.48 20.4554 10.76C20.7088 11.0333 21.1188 11.17 21.6854 11.17C21.9321 11.17 22.1721 11.14 22.4054 11.08C22.6388 11.0133 22.8554 10.9333 23.0554 10.84V11.78C22.8221 11.8867 22.5788 11.9667 22.3254 12.02C22.0721 12.0733 21.8021 12.1 21.5154 12.1ZM26.0564 12.13C25.603 12.13 25.243 12.01 24.9764 11.77C24.7164 11.53 24.5864 11.1767 24.5864 10.71V7.85H23.7764V6.98H24.5864V5.58H25.6664V6.98H26.8864V7.85H25.6664V10.5C25.6664 10.7333 25.7064 10.91 25.7864 11.03C25.873 11.1433 26.0297 11.2 26.2564 11.2C26.3697 11.2 26.483 11.1867 26.5964 11.16C26.7097 11.1267 26.8064 11.0867 26.8864 11.04V11.97C26.7664 12.0233 26.6297 12.0633 26.4764 12.09C26.3297 12.1167 26.1897 12.13 26.0564 12.13ZM28.1343 12V7.01H29.1843L29.1943 12H28.1343ZM28.1043 6.18V5.23H29.2243V6.18H28.1043ZM32.3819 12L30.2719 6.98H31.3919L33.1119 11.15L32.8619 11.18L34.4619 6.98H35.5519L33.4319 12H32.3819ZM38.4088 12.15C37.9155 12.15 37.4855 12.05 37.1188 11.85C36.7588 11.65 36.4788 11.3533 36.2788 10.96C36.0855 10.5667 35.9888 10.0867 35.9888 9.52C35.9888 8.64667 36.1921 7.98667 36.5988 7.54C37.0121 7.08667 37.5855 6.86 38.3188 6.86C38.8588 6.86 39.2955 6.98 39.6288 7.22C39.9621 7.46 40.2021 7.79667 40.3488 8.23C40.5021 8.65667 40.5755 9.15667 40.5688 9.73H36.6188L36.5888 8.95H39.7688L39.5188 9.2C39.4988 8.68667 39.3921 8.31333 39.1988 8.08C39.0055 7.84 38.7021 7.72 38.2888 7.72C38.0221 7.72 37.7955 7.77667 37.6088 7.89C37.4221 7.99667 37.2788 8.18333 37.1788 8.45C37.0855 8.71 37.0388 9.07 37.0388 9.53C37.0388 10.09 37.1688 10.5167 37.4288 10.81C37.6888 11.0967 38.0721 11.24 38.5788 11.24C38.8055 11.24 39.0155 11.22 39.2088 11.18C39.4088 11.14 39.5921 11.09 39.7588 11.03C39.9255 10.9633 40.0688 10.9 40.1888 10.84V11.81C39.9555 11.91 39.6921 11.99 39.3988 12.05C39.1055 12.1167 38.7755 12.15 38.4088 12.15Z" fill="#00D4E7"/>
</svg>
