<svg width="20" height="20" viewBox="0 0 20 20" fill="none" xmlns="http://www.w3.org/2000/svg">
<g id="home">
<mask id="mask0_1006_44" style="mask-type:alpha" maskUnits="userSpaceOnUse" x="0" y="0" width="20" height="20">
<rect id="Bounding box" width="20" height="20" fill="#D9D9D9"/>
</mask>
<g mask="url(#mask0_1006_44)">
<path id="calendar_today" d="M4.16667 18.3334C3.70833 18.3334 3.31597 18.1702 2.98958 17.8438C2.66319 17.5174 2.5 17.1251 2.5 16.6667V5.00008C2.5 4.54175 2.66319 4.14939 2.98958 3.823C3.31597 3.49661 3.70833 3.33341 4.16667 3.33341H5V1.66675H6.66667V3.33341H13.3333V1.66675H15V3.33341H15.8333C16.2917 3.33341 16.684 3.49661 17.0104 3.823C17.3368 4.14939 17.5 4.54175 17.5 5.00008V16.6667C17.5 17.1251 17.3368 17.5174 17.0104 17.8438C16.684 18.1702 16.2917 18.3334 15.8333 18.3334H4.16667ZM4.16667 16.6667H15.8333V8.33341H4.16667V16.6667Z" fill="#9BA5B7"/>
</g>
</g>
</svg>
