<svg width="205" height="41" viewBox="0 0 205 41" fill="none" xmlns="http://www.w3.org/2000/svg">
<g clip-path="url(#clip0_1976_216)">
<path d="M109.355 7.3021C110.958 7.3021 112.257 6.0116 112.257 4.4197C112.257 2.82779 110.958 1.53729 109.355 1.53729C107.752 1.53729 106.453 2.82779 106.453 4.4197C106.453 6.0116 107.752 7.3021 109.355 7.3021Z" fill="#00CDFE"/>
<path d="M74.4473 37.2162H86.0504C86.2122 37.1079 86.3704 36.9961 86.5252 36.8773H73.969C74.1237 36.9961 74.282 37.1044 74.4438 37.2162H74.4473Z" fill="#00CDFE"/>
<path d="M73.8951 13.5351H75.6853V23.0872C75.6853 24.5057 75.9843 25.7809 76.5822 26.9164C77.1801 28.0519 78.0031 28.9463 79.0547 29.6031C80.1063 30.26 81.267 30.5884 82.5402 30.5884H83.2401C83.9154 30.5884 84.4676 30.4067 84.8932 30.0469C85.3223 29.687 85.5368 29.2223 85.5368 28.6563C85.5368 28.0903 85.375 27.6256 85.0514 27.2658C84.7279 26.9059 84.3304 26.7242 83.8627 26.7242H82.5402C81.7102 26.7242 81.0067 26.3749 80.437 25.6796C79.8672 24.9843 79.5823 24.1213 79.5823 23.0872V13.5351H82.8919C83.4371 13.5351 83.8767 13.3813 84.2144 13.0704C84.552 12.7629 84.7208 12.3751 84.7208 11.9104C84.7208 11.3933 84.552 10.9811 84.2144 10.6736C83.8767 10.3662 83.4371 10.2089 82.8919 10.2089H79.5823V4.63979C79.5823 4.07379 79.3994 3.60911 79.0371 3.24925C78.6749 2.88938 78.2071 2.7077 77.6338 2.7077C77.0605 2.7077 76.5962 2.88938 76.2305 3.24925C75.8682 3.60911 75.6853 4.07379 75.6853 4.63979V10.2089H73.8951C73.3499 10.2089 72.9068 10.3627 72.5726 10.6736C72.235 10.9846 72.0662 11.3968 72.0662 11.9104C72.0662 12.3751 72.235 12.7629 72.5726 13.0704C72.9103 13.3813 73.3499 13.5351 73.8951 13.5351Z" fill="#00CDFE"/>
<path d="M177.594 18.5417L181.365 25.3232V14.2862C181.164 14.7195 180.932 15.1352 180.668 15.537C179.863 16.7599 178.833 17.7661 177.594 18.5417Z" fill="#29292D"/>
<path d="M204.455 0.929359C204.093 0.569495 203.611 0.387816 203.013 0.387816C202.995 0.387816 202.978 0.39131 202.957 0.39131C202.935 0.39131 202.918 0.384323 202.9 0.384323C202.675 0.384323 202.461 0.433236 202.253 0.513594C202.243 0.517088 202.232 0.520582 202.221 0.524076C202.155 0.552026 202.091 0.586964 202.024 0.621903C201.965 0.653347 201.905 0.684791 201.849 0.723223C201.803 0.754668 201.757 0.796594 201.711 0.831532C201.673 0.862976 201.631 0.890927 201.592 0.925865C201.585 0.932853 201.581 0.93984 201.574 0.946828C201.55 0.971285 191.195 11.2431 191.195 11.2431L180.893 1.00972C180.893 1.00972 180.883 1.00273 180.876 0.995741C180.855 0.971285 180.841 0.946828 180.816 0.922371C180.598 0.709248 180.338 0.566001 180.039 0.478656C179.859 0.419261 179.68 0.380829 179.49 0.380829C179.473 0.380829 179.451 0.387816 179.434 0.387816C179.413 0.387816 179.399 0.384323 179.378 0.384323C178.808 0.384323 178.333 0.566001 177.957 0.925865C177.922 0.960803 177.897 0.999235 177.865 1.03417C179.089 1.88317 180.088 2.95578 180.841 4.245C181.474 5.33157 181.899 6.52297 182.117 7.80869L188.385 14.0347L189.672 15.3134C190.513 16.1484 191.87 16.1484 192.711 15.3134L194.002 14.0347L201.026 7.05752V28.6144C201.026 29.1804 201.212 29.6521 201.588 30.0259C201.965 30.3997 202.439 30.5884 203.009 30.5884C203.579 30.5884 204.086 30.4032 204.451 30.0259C204.814 29.6521 204.996 29.1804 204.996 28.6144V2.35833C204.996 1.76438 204.814 1.28922 204.451 0.925865L204.455 0.929359Z" fill="#29292D"/>
<path d="M186.278 37.0485L175.674 17.9827C177.285 17.263 178.555 16.1904 179.49 14.7719C180.426 13.3534 180.893 11.7287 180.893 9.89798C180.893 8.06722 180.471 6.39368 179.627 4.94724C178.783 3.50429 177.601 2.38277 176.085 1.58269C174.566 0.782604 172.846 0.384308 170.926 0.384308H163.92C163.888 0.384308 163.863 0.391295 163.832 0.391295C163.804 0.391295 163.775 0.384308 163.744 0.384308C163.174 0.384308 162.692 0.572974 162.302 0.946813C161.911 1.32065 161.718 1.8028 161.718 2.39675V13.4966H143.654V2.39675C143.654 1.8028 143.464 1.32065 143.091 0.946813C142.715 0.572974 142.23 0.384308 141.632 0.384308C141.034 0.384308 140.58 0.572974 140.19 0.946813C139.799 1.32065 139.606 1.8028 139.606 2.39675V28.5795C139.606 29.1455 139.799 29.6241 140.19 30.0084C140.58 30.3962 141.058 30.5884 141.632 30.5884C142.205 30.5884 142.715 30.3962 143.091 30.0084C143.468 29.6206 143.654 29.1455 143.654 28.5795V17.0533H161.718V28.5795C161.718 29.1455 161.911 29.6241 162.302 30.0084C162.692 30.3962 163.171 30.5884 163.744 30.5884C163.775 30.5884 163.804 30.5814 163.832 30.5814C163.86 30.5814 163.888 30.5884 163.916 30.5884C164.514 30.5884 164.999 30.3962 165.376 30.0084C165.752 29.6206 165.939 29.1455 165.939 28.5795V18.9505H171.622L182.965 39.1762C183.38 39.8226 183.964 40.144 184.717 40.144C185.314 40.144 185.786 39.9693 186.137 39.6234C186.489 39.274 186.662 38.8443 186.662 38.3272C186.662 37.8905 186.531 37.4642 186.271 37.052L186.278 37.0485ZM171.809 14.3491H165.942V4.58388H171.809C174.524 4.58388 176.722 6.77101 176.722 9.46475C176.722 12.162 174.52 14.3456 171.809 14.3456V14.3491Z" fill="#29292D"/>
<path d="M9.44 5.21977C11.1388 4.16114 13.0029 3.63357 15.0252 3.63357C16.6326 3.63357 17.9444 3.83272 18.9574 4.23451C19.9703 4.63281 21.0079 5.28615 22.0736 6.18756C22.4886 6.52297 22.9423 6.69067 23.4347 6.69067C23.9271 6.69067 24.3632 6.52297 24.7396 6.18756C25.1159 5.85215 25.3023 5.42591 25.3023 4.91231C25.3023 4.57691 25.2495 4.28692 25.1475 4.04235C25.042 3.79778 24.8345 3.5602 24.525 3.32612C23.0443 2.14171 21.5847 1.28922 20.1462 0.772135C18.7041 0.255049 16.9983 0 15.0252 0C12.2467 0 9.71082 0.691777 7.41413 2.06834C5.11744 3.4484 3.30611 5.3176 1.98367 7.67593C0.661222 10.0343 0 12.6337 0 15.4706C0 18.3076 0.661222 20.949 1.98718 23.3213C3.30963 25.6936 5.12095 27.5628 7.41765 28.9288C9.71434 30.2949 12.2502 30.9797 15.0287 30.9797C18.5846 30.9797 21.7641 29.8582 24.5672 27.6152C24.9822 27.2029 25.1898 26.7242 25.1898 26.1862C25.1898 25.6481 25.028 25.1625 24.7044 24.8131C24.3808 24.4637 23.9693 24.2925 23.4769 24.2925C23.0619 24.2925 22.6328 24.4463 22.1931 24.7572C19.9105 26.4587 17.5224 27.3112 15.0287 27.3112C13.0029 27.3112 11.1423 26.7836 9.44352 25.725C7.74474 24.6664 6.39416 23.2374 5.39529 21.4311C4.39642 19.6283 3.89699 17.6403 3.89699 15.4741C3.89699 13.308 4.39642 11.3549 5.39529 9.53813C6.39416 7.72135 7.74474 6.28539 9.44352 5.22676L9.44 5.21977Z" fill="#00CDFE"/>
<path d="M42.7473 10.5968C41.2948 9.71981 39.5678 9.28308 37.5701 9.28308C35.5724 9.28308 33.7364 9.74077 32.1396 10.6562C30.5429 11.5715 29.2978 12.8468 28.4009 14.4854C27.504 16.124 27.0574 17.9722 27.0574 20.0336C27.0574 22.0949 27.5322 23.9397 28.4783 25.5643C29.4244 27.1889 30.7433 28.4607 32.428 29.3726C34.1163 30.2879 36.0226 30.7456 38.1504 30.7456C39.3427 30.7456 40.5948 30.5255 41.9067 30.0888C43.2186 29.6521 44.3125 29.0826 45.1953 28.3873C45.6103 28.0764 45.8178 27.692 45.8178 27.2274C45.8178 26.7382 45.5857 26.298 45.1179 25.9137C44.833 25.6551 44.4426 25.5259 43.9502 25.5259C43.4578 25.5259 43.0287 25.6691 42.6664 25.9521C42.1213 26.3644 41.4284 26.7138 40.5843 26.9968C39.7402 27.2798 38.9312 27.423 38.1504 27.423C36.1773 27.423 34.5102 26.8675 33.1491 25.7599C31.7879 24.6524 30.9614 23.1955 30.6765 21.3892H45.4696C45.9901 21.3892 46.4157 21.2285 46.7533 20.907C47.091 20.5856 47.2598 20.1803 47.2598 19.6877C47.2598 17.6508 46.8729 15.848 46.0921 14.2723C45.3148 12.7 44.1964 11.4737 42.7438 10.5968H42.7473ZM30.7187 18.2936C31.0317 16.5677 31.7774 15.1876 32.9556 14.157C34.1374 13.1263 35.6744 12.6092 37.5701 12.6092C39.2829 12.6092 40.6722 13.1263 41.7344 14.157C42.7966 15.1876 43.4472 16.5677 43.6794 18.2936H30.7152H30.7187Z" fill="#00CDFE"/>
<path d="M126.835 12.7629C127.82 12.7629 128.696 12.9236 129.462 13.2451C130.229 13.5665 130.936 14.0766 131.583 14.7719C131.998 15.2366 132.505 15.4671 133.103 15.4671C133.44 15.4671 133.739 15.3763 134 15.1946C134.569 14.8068 134.858 14.3317 134.858 13.7622C134.858 13.3743 134.728 13.0389 134.467 12.7559C132.441 10.436 129.899 9.27609 126.835 9.27609C124.809 9.27609 122.994 9.73378 121.384 10.6492C119.773 11.5645 118.521 12.8398 117.627 14.4784C116.73 16.117 116.284 17.9652 116.284 20.0266C116.284 22.0879 116.744 23.8628 117.666 25.4979C118.587 27.1365 119.864 28.4187 121.5 29.3446C123.135 30.274 124.978 30.7386 127.029 30.7386C129.832 30.7386 132.167 29.8757 134.035 28.1462C134.348 27.8353 134.502 27.4894 134.502 27.1016C134.502 26.5845 134.256 26.1233 133.764 25.711C133.451 25.4804 133.113 25.3616 132.751 25.3616C132.283 25.3616 131.805 25.5433 131.312 25.9032C130.222 26.8046 128.794 27.2553 127.029 27.2553C125.678 27.2553 124.479 26.9443 123.427 26.3259C122.375 25.7075 121.559 24.8516 120.976 23.7545C120.392 22.6574 120.1 21.4136 120.1 20.0231C120.1 17.8325 120.722 16.0716 121.967 14.7439C123.212 13.4163 124.834 12.7524 126.835 12.7524V12.7629Z" fill="#00CDFE"/>
<path d="M103.478 9.82461C102.701 9.41234 101.621 9.20621 100.246 9.20621C98.9478 9.20621 97.7274 9.46475 96.5878 9.97834C95.4447 10.4954 94.4845 11.2047 93.7073 12.1061V11.3724C93.7073 10.0832 93.0566 9.44029 91.7623 9.44029C91.1397 9.44029 90.6579 9.608 90.3202 9.9434C89.9826 10.2788 89.8138 10.754 89.8138 11.3759V27.9261C89.5535 32.9817 85.3505 36.9437 80.2507 36.9437C77.4299 36.9437 74.7077 35.6789 72.9034 33.5267C71.8869 32.3178 71.1905 30.8539 70.8881 29.3062C70.6137 27.9156 70.7439 26.4797 70.7439 25.0682V19.1461C70.7439 17.0568 70.3394 15.2715 69.5375 13.7901C68.7321 12.3087 67.6171 11.1802 66.1892 10.4046C64.7612 9.63245 63.1539 9.24464 61.3601 9.24464C60.0623 9.24464 58.8419 9.47174 57.7023 9.92244C56.5592 10.3731 55.5744 11.0125 54.7444 11.8371V11.4108C54.7444 10.8169 54.5615 10.3417 54.1992 9.97834C53.837 9.61848 53.3551 9.4368 52.7572 9.4368C52.1593 9.4368 51.7126 9.61848 51.3363 9.97834C50.9599 10.3382 50.77 10.8169 50.77 11.4108V28.6598C50.77 29.2258 50.9599 29.6975 51.3363 30.0713C51.7126 30.4452 52.1874 30.6338 52.7572 30.6338C53.327 30.6338 53.8334 30.4486 54.1992 30.0713C54.5615 29.6975 54.7444 29.2258 54.7444 28.6598V17.7556C54.7444 16.8262 54.9976 15.9912 55.5041 15.2435C56.0106 14.4959 56.7105 13.9019 57.6073 13.4652C58.5042 13.0284 59.496 12.8083 60.5864 12.8083C62.454 12.8083 63.9523 13.3429 65.0813 14.412C66.2103 15.4811 66.7765 17.0603 66.7765 19.1496V23.9991C66.7765 26.7138 66.6042 29.4075 67.5433 32.0104C68.4823 34.6133 70.1952 36.8878 72.4567 38.5019C74.7217 40.1161 77.4651 41.0105 80.2542 41.0105C87.4221 41.0105 93.44 34.9627 93.746 27.9156C93.8972 24.4253 93.7108 20.8721 93.7108 17.3713C93.7108 15.9283 94.2806 14.7789 95.4236 13.9299C96.5667 13.0774 98.072 12.6546 99.9396 12.6546C100.587 12.6546 101.431 12.7454 102.468 12.9271C102.729 12.9795 102.922 13.004 103.052 13.004C103.858 13.004 104.375 12.5917 104.61 11.7672C104.635 11.6903 104.649 11.561 104.649 11.3794C104.649 10.761 104.259 10.2439 103.481 9.8316L103.478 9.82461Z" fill="#00CDFE"/>
<path d="M109.552 9.43683C108.982 9.43683 108.507 9.61851 108.131 9.97837C107.755 10.3382 107.568 10.8169 107.568 11.4108V28.6214C107.568 29.1874 107.755 29.6591 108.131 30.0329C108.507 30.4067 108.982 30.5954 109.552 30.5954C110.122 30.5954 110.628 30.4102 110.994 30.0329C111.356 29.6591 111.539 29.1874 111.539 28.6214V11.4108C111.539 10.8169 111.356 10.3417 110.994 9.97837C110.632 9.61851 110.15 9.43683 109.552 9.43683Z" fill="#00CDFE"/>
</g>
<defs>
<clipPath id="clip0_1976_216">
<rect width="205" height="41" fill="white"/>
</clipPath>
</defs>
</svg>
