<svg width="52" height="52" viewBox="0 0 52 52" fill="none" xmlns="http://www.w3.org/2000/svg">
<g id="description">
<mask id="mask0_1734_145" style="mask-type:alpha" maskUnits="userSpaceOnUse" x="0" y="0" width="52" height="52">
<rect id="Bounding box" width="52" height="52" fill="#D9D9D9"/>
</mask>
<g mask="url(#mask0_1734_145)">
<path id="description_2" d="M17.8751 38.4583H34.125V35.2084H17.8751V38.4583ZM17.8751 29.7916H34.125V26.5418H17.8751V29.7916ZM13.6667 46.5833C12.5723 46.5833 11.6459 46.2041 10.8876 45.4458C10.1292 44.6875 9.75006 43.7611 9.75006 42.6666V9.33343C9.75006 8.23898 10.1292 7.31258 10.8876 6.55425C11.6459 5.79591 12.5723 5.41675 13.6667 5.41675H30.8751L42.25 16.7916V42.6666C42.25 43.7611 41.8708 44.6875 41.1125 45.4458C40.3541 46.2041 39.4277 46.5833 38.3333 46.5833H13.6667ZM29.2501 18.4166V8.6667H13.6667C13.5001 8.6667 13.3473 8.73614 13.2083 8.87502C13.0694 9.01394 13 9.16674 13 9.33343V42.6666C13 42.8333 13.0694 42.9861 13.2083 43.125C13.3473 43.2639 13.5001 43.3334 13.6667 43.3334H38.3333C38.5 43.3334 38.6528 43.2639 38.7917 43.125C38.9306 42.9861 39 42.8333 39 42.6666V18.4166H29.2501Z" fill="#9BA5B7"/>
</g>
</g>
</svg>
