<svg width="21" height="24" viewBox="0 0 21 24" fill="none" xmlns="http://www.w3.org/2000/svg">
<path d="M10.5 10.8C11.9438 10.8 13.1797 10.33 14.2078 9.39C15.2359 8.45 15.75 7.32 15.75 6V2.4H5.25V6C5.25 7.32 5.76406 8.45 6.79219 9.39C7.82031 10.33 9.05625 10.8 10.5 10.8ZM0 24V21.6H2.625V18C2.625 16.78 2.93672 15.635 3.56016 14.565C4.18359 13.495 5.05313 12.64 6.16875 12C5.05313 11.36 4.18359 10.505 3.56016 9.435C2.93672 8.365 2.625 7.22 2.625 6V2.4H0V0H21V2.4H18.375V6C18.375 7.22 18.0633 8.365 17.4398 9.435C16.8164 10.505 15.9469 11.36 14.8313 12C15.9469 12.64 16.8164 13.495 17.4398 14.565C18.0633 15.635 18.375 16.78 18.375 18V21.6H21V24H0Z" fill="#00D4E7"/>
</svg>
