<svg width="30" height="28" viewBox="0 0 30 28" fill="none" xmlns="http://www.w3.org/2000/svg">
<g id="lock_reset">
<mask id="mask0_1919_762" style="mask-type:alpha" maskUnits="userSpaceOnUse" x="0" y="0" width="30" height="28">
<rect id="Bounding box" width="30" height="28" fill="#9BA5B7"/>
</mask>
<g mask="url(#mask0_1919_762)">
<path id="lock_reset_2" d="M16.8293 24C15.4763 24 14.1969 23.753 12.9912 23.259C11.7854 22.7651 10.7131 22.0814 9.77431 21.2081L11.0652 19.9503C11.8383 20.6607 12.7101 21.2191 13.6803 21.6256C14.6506 22.0321 15.7003 22.2353 16.8293 22.2353C19.1503 22.2353 21.1266 21.4333 22.758 19.8292C24.3895 18.2251 25.2052 16.2821 25.2052 14C25.2052 11.7255 24.3876 9.7843 22.7523 8.17645C21.117 6.56861 19.1427 5.76468 16.8293 5.76468C14.516 5.76468 12.5417 6.56861 10.9064 8.17645C9.27111 9.7843 8.45347 11.7255 8.45347 14V14.9186L10.8328 12.5792L12.1121 13.8077L7.55608 18.2873L3 13.8077L4.27938 12.5792L6.65867 14.948V14C6.65867 12.6118 6.9256 11.3115 7.45946 10.0991C7.9933 8.88673 8.71889 7.82956 9.63623 6.9276C10.5536 6.02565 11.6287 5.31224 12.8617 4.78736C14.0946 4.26245 15.4169 4 16.8287 4C18.2404 4 19.563 4.26245 20.7964 4.78736C22.0297 5.31224 23.1051 6.02565 24.0224 6.9276C24.9398 7.82956 25.6654 8.88662 26.1992 10.0988C26.7331 11.3109 27 12.611 27 13.999C27 16.7749 26.0112 19.1357 24.0335 21.0814C22.0559 23.0271 19.6545 24 16.8293 24ZM14.4362 18.5701C14.1168 18.5701 13.849 18.4639 13.6329 18.2514C13.4168 18.0389 13.3087 17.7756 13.3087 17.4615V13.9321C13.3087 13.618 13.4234 13.3547 13.6527 13.1422C13.8821 12.9298 14.1662 12.8235 14.5053 12.8235V11.5792C14.5053 10.9508 14.7328 10.4128 15.188 9.96534C15.6431 9.51785 16.1902 9.2941 16.8293 9.2941C17.4685 9.2941 18.0156 9.51785 18.4707 9.96534C18.9258 10.4128 19.1534 10.9508 19.1534 11.5792V12.8235C19.4924 12.8235 19.7766 12.9298 20.0059 13.1422C20.2353 13.3547 20.3499 13.618 20.3499 13.9321V17.4615C20.3499 17.7756 20.2419 18.0389 20.0258 18.2514C19.8097 18.4639 19.5419 18.5701 19.2224 18.5701H14.4362ZM15.5637 12.8235H18.0949V11.5836C18.0949 11.2322 17.9726 10.9363 17.7279 10.6957C17.4832 10.4551 17.1837 10.3348 16.8293 10.3348C16.475 10.3348 16.1754 10.4551 15.9308 10.6957C15.6861 10.9363 15.5637 11.2322 15.5637 11.5836V12.8235Z" fill="#9BA5B7"/>
</g>
</g>
</svg>
