<svg width="20" height="20" viewBox="0 0 20 20" fill="none" xmlns="http://www.w3.org/2000/svg">
<g id="home">
<mask id="mask0_883_964" style="mask-type:alpha" maskUnits="userSpaceOnUse" x="0" y="0" width="20" height="20">
<rect id="Bounding box" width="19.1483" height="19.9203" fill="#9BA5B7"/>
</mask>
<g mask="url(#mask0_883_964)">
<path id="mark_as_unread" d="M4.46796 13.8045C4.11691 13.8045 3.81639 13.6676 3.56639 13.3938C3.3164 13.1201 3.19141 12.791 3.19141 12.4066V6.91973C3.19141 6.74499 3.23662 6.57316 3.32704 6.40425C3.41746 6.23533 3.54246 6.10428 3.70203 6.01108L8.61677 3.32009L13.4358 6.01108C13.5634 6.08098 13.6725 6.19165 13.7629 6.34309C13.8533 6.49453 13.9145 6.6518 13.9464 6.81489H12.0794L8.61677 4.89275L4.46796 7.14689V13.8045ZM6.3828 16.6003C6.03174 16.6003 5.73122 16.4634 5.48123 16.1897C5.23124 15.9159 5.10624 15.5868 5.10624 15.2024V8.91176C5.10624 8.52733 5.23124 8.19824 5.48123 7.92448C5.73122 7.65072 6.03174 7.51384 6.3828 7.51384H14.6804C15.0315 7.51384 15.332 7.65072 15.582 7.92448C15.832 8.19824 15.957 8.52733 15.957 8.91176V15.2024C15.957 15.5868 15.832 15.9159 15.582 16.1897C15.332 16.4634 15.0315 16.6003 14.6804 16.6003H6.3828ZM10.5316 12.6512L14.6804 10.3097V8.91176L10.5316 11.2533L6.3828 8.91176V10.3097L10.5316 12.6512Z" fill="#9BA5B7"/>
</g>
</g>
</svg>
