<svg width="69" height="17" viewBox="0 0 69 17" fill="none" xmlns="http://www.w3.org/2000/svg">
<rect x="0.25" y="0.25" width="68.5" height="16.5" rx="2.75" fill="#E2434B" fill-opacity="0.1"/>
<rect x="0.25" y="0.25" width="68.5" height="16.5" rx="2.75" stroke="#E2434B" stroke-width="0.5"/>
<path d="M10.9101 12V5.33H11.9701L15.8201 10.66L15.5101 11.26V5.33H16.5601V12H15.5701L11.6101 6.56L11.9601 6.07V12H10.9101ZM20.2367 12.15C19.4233 12.15 18.8167 11.92 18.4167 11.46C18.0233 11 17.8267 10.3433 17.8267 9.49C17.8267 8.58333 18.03 7.92 18.4367 7.5C18.85 7.07333 19.4433 6.86 20.2167 6.86C20.77 6.86 21.2267 6.96333 21.5867 7.17C21.9467 7.37 22.2133 7.66667 22.3867 8.06C22.56 8.45333 22.6467 8.93 22.6467 9.49C22.6467 10.3367 22.4367 10.9933 22.0167 11.46C21.6033 11.92 21.01 12.15 20.2367 12.15ZM20.2267 11.26C20.5667 11.26 20.8367 11.1867 21.0367 11.04C21.2367 10.8867 21.38 10.6767 21.4667 10.41C21.56 10.1433 21.6067 9.83667 21.6067 9.49C21.6067 9.10333 21.56 8.78 21.4667 8.52C21.3733 8.26 21.2267 8.06667 21.0267 7.94C20.8267 7.80667 20.56 7.74 20.2267 7.74C19.8933 7.74 19.6267 7.81 19.4267 7.95C19.2267 8.09 19.0833 8.29 18.9967 8.55C18.91 8.81 18.8667 9.12333 18.8667 9.49C18.8667 10.0433 18.97 10.4767 19.1767 10.79C19.3833 11.1033 19.7333 11.26 20.2267 11.26ZM25.6579 12.13C25.2046 12.13 24.8446 12.01 24.5779 11.77C24.3179 11.53 24.1879 11.1767 24.1879 10.71V7.85H23.3779V6.98H24.1879V5.58H25.2679V6.98H26.4879V7.85H25.2679V10.5C25.2679 10.7333 25.3079 10.91 25.3879 11.03C25.4746 11.1433 25.6313 11.2 25.8579 11.2C25.9713 11.2 26.0846 11.1867 26.1979 11.16C26.3113 11.1267 26.4079 11.0867 26.4879 11.04V11.97C26.3679 12.0233 26.2313 12.0633 26.0779 12.09C25.9313 12.1167 25.7913 12.13 25.6579 12.13ZM29.9776 12L32.5776 5.33H33.7476L36.2776 12H35.1176L32.8876 5.87L33.3076 5.83L31.0776 12H29.9776ZM31.2576 10.19L31.5776 9.29H34.7476L34.8376 10.19H31.2576ZM39.3592 12.1C39.0525 12.1 38.7525 12.0567 38.4592 11.97C38.1658 11.8833 37.8992 11.7433 37.6592 11.55C37.4258 11.35 37.2392 11.0867 37.0992 10.76C36.9592 10.4267 36.8892 10.0133 36.8892 9.52C36.8892 9.01333 36.9558 8.59 37.0892 8.25C37.2225 7.91 37.4058 7.64 37.6392 7.44C37.8725 7.23333 38.1358 7.08667 38.4292 7C38.7292 6.91333 39.0358 6.87 39.3492 6.87C39.6158 6.87 39.8825 6.89667 40.1492 6.95C40.4158 6.99667 40.6625 7.07 40.8892 7.17V8.11C40.6625 8.01 40.4358 7.93333 40.2092 7.88C39.9825 7.82 39.7458 7.79 39.4992 7.79C38.9792 7.79 38.5858 7.92 38.3192 8.18C38.0592 8.44 37.9292 8.86 37.9292 9.44C37.9292 10.04 38.0525 10.48 38.2992 10.76C38.5525 11.0333 38.9625 11.17 39.5292 11.17C39.7758 11.17 40.0158 11.14 40.2492 11.08C40.4825 11.0133 40.6992 10.9333 40.8992 10.84V11.78C40.6658 11.8867 40.4225 11.9667 40.1692 12.02C39.9158 12.0733 39.6458 12.1 39.3592 12.1ZM43.9001 12.13C43.4468 12.13 43.0868 12.01 42.8201 11.77C42.5601 11.53 42.4301 11.1767 42.4301 10.71V7.85H41.6201V6.98H42.4301V5.58H43.5101V6.98H44.7301V7.85H43.5101V10.5C43.5101 10.7333 43.5501 10.91 43.6301 11.03C43.7168 11.1433 43.8735 11.2 44.1001 11.2C44.2135 11.2 44.3268 11.1867 44.4401 11.16C44.5535 11.1267 44.6501 11.0867 44.7301 11.04V11.97C44.6101 12.0233 44.4735 12.0633 44.3201 12.09C44.1735 12.1167 44.0335 12.13 43.9001 12.13ZM45.978 12V7.01H47.028L47.038 12H45.978ZM45.948 6.18V5.23H47.068V6.18H45.948ZM50.2257 12L48.1157 6.98H49.2357L50.9557 11.15L50.7057 11.18L52.3057 6.98H53.3957L51.2757 12H50.2257ZM56.2525 12.15C55.7592 12.15 55.3292 12.05 54.9625 11.85C54.6025 11.65 54.3225 11.3533 54.1225 10.96C53.9292 10.5667 53.8325 10.0867 53.8325 9.52C53.8325 8.64667 54.0359 7.98667 54.4425 7.54C54.8559 7.08667 55.4292 6.86 56.1625 6.86C56.7025 6.86 57.1392 6.98 57.4725 7.22C57.8059 7.46 58.0459 7.79667 58.1925 8.23C58.3459 8.65667 58.4192 9.15667 58.4125 9.73H54.4625L54.4325 8.95H57.6125L57.3625 9.2C57.3425 8.68667 57.2359 8.31333 57.0425 8.08C56.8492 7.84 56.5459 7.72 56.1325 7.72C55.8659 7.72 55.6392 7.77667 55.4525 7.89C55.2659 7.99667 55.1225 8.18333 55.0225 8.45C54.9292 8.71 54.8825 9.07 54.8825 9.53C54.8825 10.09 55.0125 10.5167 55.2725 10.81C55.5325 11.0967 55.9159 11.24 56.4225 11.24C56.6492 11.24 56.8592 11.22 57.0525 11.18C57.2525 11.14 57.4359 11.09 57.6025 11.03C57.7692 10.9633 57.9125 10.9 58.0325 10.84V11.81C57.7992 11.91 57.5359 11.99 57.2425 12.05C56.9492 12.1167 56.6192 12.15 56.2525 12.15Z" fill="#E2434B"/>
</svg>
