<svg width="17" height="17" viewBox="0 0 17 17" fill="none" xmlns="http://www.w3.org/2000/svg">
<path d="M9.35995 14.316C9.24009 14.5226 9.06807 14.6941 8.86109 14.8133C8.65411 14.9325 8.41944 14.9952 8.18058 14.9952C7.94172 14.9952 7.70706 14.9325 7.50008 14.8133C7.2931 14.6941 7.12107 14.5226 7.00122 14.316M12.2709 5.45368C12.2709 4.36887 11.8399 3.32849 11.0728 2.56142C10.3058 1.79434 9.26539 1.3634 8.18058 1.3634C7.09577 1.3634 6.0554 1.79434 5.28832 2.56142C4.52124 3.32849 4.0903 4.36887 4.0903 5.45368C4.0903 10.2257 2.04517 11.5891 2.04517 11.5891H14.316C14.316 11.5891 12.2709 10.2257 12.2709 5.45368Z" stroke="white" stroke-width="1.36343" stroke-linecap="round" stroke-linejoin="round"/>
</svg>
