<svg width="15" height="15" viewBox="0 0 15 15" fill="none" xmlns="http://www.w3.org/2000/svg">
<path d="M9.80192 2.54163C9.554 2.54163 9.34446 2.45604 9.17327 2.28486C9.0021 2.11367 8.9165 1.90413 8.9165 1.65621C8.9165 1.40829 9.0021 1.19874 9.17327 1.02756C9.34446 0.856383 9.554 0.770793 9.80192 0.770793C10.0498 0.770793 10.2594 0.856383 10.4306 1.02756C10.6017 1.19874 10.6873 1.40829 10.6873 1.65621C10.6873 1.90413 10.6017 2.11367 10.4306 2.28486C10.2594 2.45604 10.0498 2.54163 9.80192 2.54163ZM9.80192 14.2291C9.554 14.2291 9.34446 14.1435 9.17327 13.9724C9.0021 13.8012 8.9165 13.5916 8.9165 13.3437C8.9165 13.0958 9.0021 12.8862 9.17327 12.7151C9.34446 12.5439 9.554 12.4583 9.80192 12.4583C10.0498 12.4583 10.2594 12.5439 10.4306 12.7151C10.6017 12.8862 10.6873 13.0958 10.6873 13.3437C10.6873 13.5916 10.6017 13.8012 10.4306 13.9724C10.2594 14.1435 10.0498 14.2291 9.80192 14.2291ZM12.6353 5.02079C12.3873 5.02079 12.1778 4.9352 12.0066 4.76402C11.8354 4.59284 11.7498 4.38329 11.7498 4.13538C11.7498 3.88746 11.8354 3.67791 12.0066 3.50673C12.1778 3.33555 12.3873 3.24996 12.6353 3.24996C12.8832 3.24996 13.0927 3.33555 13.2639 3.50673C13.4351 3.67791 13.5207 3.88746 13.5207 4.13538C13.5207 4.38329 13.4351 4.59284 13.2639 4.76402C13.0927 4.9352 12.8832 5.02079 12.6353 5.02079ZM12.6353 11.75C12.3873 11.75 12.1778 11.6644 12.0066 11.4932C11.8354 11.322 11.7498 11.1125 11.7498 10.8645C11.7498 10.6166 11.8354 10.4071 12.0066 10.2359C12.1778 10.0647 12.3873 9.97913 12.6353 9.97913C12.8832 9.97913 13.0927 10.0647 13.2639 10.2359C13.4351 10.4071 13.5207 10.6166 13.5207 10.8645C13.5207 11.1125 13.4351 11.322 13.2639 11.4932C13.0927 11.6644 12.8832 11.75 12.6353 11.75ZM13.6978 8.38538C13.4498 8.38538 13.2403 8.29979 13.0691 8.12861C12.8979 7.95742 12.8123 7.74788 12.8123 7.49996C12.8123 7.25204 12.8979 7.04249 13.0691 6.87131C13.2403 6.70013 13.4498 6.61454 13.6978 6.61454C13.9457 6.61454 14.1552 6.70013 14.3264 6.87131C14.4976 7.04249 14.5832 7.25204 14.5832 7.49996C14.5832 7.74788 14.4976 7.95742 14.3264 8.12861C14.1552 8.29979 13.9457 8.38538 13.6978 8.38538ZM7.49984 14.5833C6.51998 14.5833 5.59914 14.3974 4.73734 14.0255C3.87553 13.6536 3.12588 13.1489 2.48838 12.5114C1.85088 11.8739 1.34619 11.1243 0.974316 10.2625C0.602441 9.40065 0.416504 8.47982 0.416504 7.49996C0.416504 6.5201 0.602441 5.59927 0.974316 4.73746C1.34619 3.87565 1.85088 3.126 2.48838 2.4885C3.12588 1.851 3.87553 1.34631 4.73734 0.974439C5.59914 0.602563 6.51998 0.416626 7.49984 0.416626V1.83329C5.91789 1.83329 4.57796 2.38225 3.48005 3.48017C2.38213 4.57808 1.83317 5.91802 1.83317 7.49996C1.83317 9.0819 2.38213 10.4218 3.48005 11.5198C4.57796 12.6177 5.91789 13.1666 7.49984 13.1666V14.5833ZM7.49984 8.91663C7.11025 8.91663 6.77675 8.77791 6.49932 8.50048C6.22189 8.22305 6.08317 7.88954 6.08317 7.49996C6.08317 7.44093 6.08612 7.37895 6.09202 7.31402C6.09793 7.24909 6.11268 7.18711 6.1363 7.12809L4.6665 5.65829L5.65817 4.66663L7.12796 6.13642C7.17519 6.12461 7.29914 6.1069 7.49984 6.08329C7.88942 6.08329 8.22293 6.22201 8.50036 6.49944C8.77779 6.77687 8.9165 7.11038 8.9165 7.49996C8.9165 7.88954 8.77779 8.22305 8.50036 8.50048C8.22293 8.77791 7.88942 8.91663 7.49984 8.91663Z" fill="#FF9900"/>
</svg>
