<svg width="20" height="20" viewBox="0 0 20 20" fill="none" xmlns="http://www.w3.org/2000/svg">
<g id="home">
<mask id="mask0_883_967" style="mask-type:alpha" maskUnits="userSpaceOnUse" x="0" y="0" width="20" height="20">
<rect id="Bounding box" width="19.1483" height="19.9203" fill="#D9D9D9"/>
</mask>
<g mask="url(#mask0_883_967)">
<path id="call" d="M15.2123 16.6003C13.7348 16.6003 12.2751 16.2652 10.833 15.5951C9.39098 14.9249 8.07896 13.975 6.89697 12.7454C5.71497 11.5157 4.80188 10.1508 4.15769 8.65062C3.5135 7.15045 3.19141 5.63183 3.19141 4.09477C3.19141 3.87344 3.26233 3.68899 3.40417 3.54143C3.54601 3.39387 3.7233 3.32009 3.93606 3.32009H6.80832C6.9738 3.32009 7.12154 3.3785 7.25156 3.49532C7.38158 3.61214 7.45841 3.75047 7.48205 3.91033L7.94303 6.49259C7.96667 6.68933 7.96076 6.85534 7.9253 6.9906C7.88984 7.12586 7.82483 7.24268 7.73027 7.34105L6.01047 9.14863C6.24687 9.6036 6.52759 10.0432 6.85264 10.4674C7.17769 10.8917 7.53524 11.3005 7.9253 11.694C8.29172 12.0752 8.67587 12.4287 9.07775 12.7546C9.47963 13.0804 9.90515 13.3786 10.3543 13.6491L12.0209 11.9153C12.1273 11.8047 12.2662 11.7217 12.4376 11.6663C12.609 11.611 12.7774 11.5956 12.9429 11.6202L15.3896 12.1367C15.5551 12.1859 15.691 12.275 15.7974 12.4041C15.9038 12.5332 15.957 12.6777 15.957 12.8376V15.8256C15.957 16.047 15.886 16.2314 15.7442 16.379C15.6024 16.5265 15.4251 16.6003 15.2123 16.6003Z" fill="#9BA5B7"/>
</g>
</g>
</svg>
