<svg width="24" height="26" viewBox="0 0 24 26" fill="none" xmlns="http://www.w3.org/2000/svg">
<path d="M0 26V23.6364H24V26H0ZM2.4 22.4545V15.3636C1.74 14.3 1.23 13.1723 0.87 11.9807C0.51 10.789 0.33 9.57273 0.33 8.33182C0.33 7.1303 0.485 5.94848 0.795 4.78636C1.105 3.62424 1.47 2.48182 1.89 1.35909C2.05 0.945454 2.31 0.61553 2.67 0.369318C3.03 0.123106 3.43 0 3.87 0C4.49 0 5.02 0.206818 5.46 0.620455C5.9 1.03409 6.08 1.52652 6 2.09773L5.67 4.78636C5.55 5.73182 5.635 6.62803 5.925 7.475C6.215 8.32197 6.65 9.06553 7.23 9.70568C7.81 10.3458 8.51 10.858 9.33 11.242C10.15 11.6261 11.04 11.8182 12 11.8182C13.2 11.8182 14.405 11.9413 15.615 12.1875C16.825 12.4337 17.88 12.7833 18.78 13.2364C19.68 13.6894 20.375 14.2655 20.865 14.9648C21.355 15.664 21.6 16.5258 21.6 17.55V22.4545H2.4ZM4.8 20.0909H19.2V17.55C19.2 17.0773 19.08 16.6587 18.84 16.2943C18.6 15.9299 18.26 15.6394 17.82 15.4227C17 15.0288 16.05 14.7235 14.97 14.5068C13.89 14.2902 12.9 14.1818 12 14.1818C10.68 14.1818 9.455 13.9159 8.325 13.3841C7.195 12.8523 6.235 12.1383 5.445 11.242C4.655 10.3458 4.06 9.31174 3.66 8.13977C3.26 6.9678 3.14 5.75151 3.3 4.49091C3.1 5.08182 2.955 5.71212 2.865 6.38182C2.775 7.05152 2.73 7.70152 2.73 8.33182C2.73 9.47424 2.935 10.5723 3.345 11.6261C3.755 12.6799 4.24 13.7091 4.8 14.7136V20.0909ZM12 10.6364C10.68 10.6364 9.55 10.1735 8.61 9.24773C7.67 8.32197 7.2 7.20909 7.2 5.90909C7.2 4.60909 7.67 3.49621 8.61 2.57045C9.55 1.6447 10.68 1.18182 12 1.18182C13.32 1.18182 14.45 1.6447 15.39 2.57045C16.33 3.49621 16.8 4.60909 16.8 5.90909C16.8 7.20909 16.33 8.32197 15.39 9.24773C14.45 10.1735 13.32 10.6364 12 10.6364ZM12 8.27273C12.66 8.27273 13.225 8.04129 13.695 7.57841C14.165 7.11553 14.4 6.55909 14.4 5.90909C14.4 5.25909 14.165 4.70265 13.695 4.23977C13.225 3.77689 12.66 3.54545 12 3.54545C11.34 3.54545 10.775 3.77689 10.305 4.23977C9.835 4.70265 9.6 5.25909 9.6 5.90909C9.6 6.55909 9.835 7.11553 10.305 7.57841C10.775 8.04129 11.34 8.27273 12 8.27273ZM7.2 22.4545V21.3614C7.2 20.0417 7.665 18.9091 8.595 17.9636C9.525 17.0182 10.66 16.5455 12 16.5455H16.8V18.9091H12C11.32 18.9091 10.75 19.1504 10.29 19.633C9.83 20.1155 9.6 20.6917 9.6 21.3614V22.4545H7.2Z" fill="#00D4E7"/>
</svg>
