<svg width="14" height="14" viewBox="0 0 14 14" fill="none" xmlns="http://www.w3.org/2000/svg">
<mask id="mask0_696_1974" style="mask-type:alpha" maskUnits="userSpaceOnUse" x="0" y="0" width="14" height="14">
<rect width="14" height="14" fill="#D9D9D9"/>
</mask>
<g mask="url(#mask0_696_1974)">
<path d="M6.41657 10.5C7.54435 10.5 8.50685 10.1029 9.30407 9.30868C10.1013 8.51445 10.4999 7.55045 10.4999 6.41669C10.4999 5.28892 10.1013 4.32642 9.30407 3.52919C8.50685 2.73197 7.54435 2.33336 6.41657 2.33336C5.28281 2.33336 4.31882 2.73197 3.52458 3.52919C2.73035 4.32642 2.33324 5.28892 2.33324 6.41669C2.33324 7.55045 2.73035 8.51445 3.52458 9.30868C4.31882 10.1029 5.28281 10.5 6.41657 10.5ZM11.9235 12.5417L9.59349 10.2207C9.15524 10.5841 8.66651 10.8674 8.1273 11.0704C7.58809 11.2735 7.01785 11.375 6.41657 11.375C5.72854 11.375 5.08388 11.2449 4.4826 10.9846C3.88132 10.7244 3.35707 10.3706 2.90985 9.92342C2.46264 9.47619 2.1089 8.95194 1.84865 8.35066C1.58838 7.74938 1.45825 7.10473 1.45825 6.41669C1.45825 5.73464 1.58838 5.09298 1.84865 4.49171C2.1089 3.89043 2.46264 3.36468 2.90985 2.91446C3.35707 2.46425 3.88132 2.10902 4.4826 1.84877C5.08388 1.58851 5.72854 1.45837 6.41657 1.45837C7.09862 1.45837 7.74029 1.58851 8.34156 1.84877C8.94284 2.10902 9.46859 2.46425 9.9188 2.91446C10.369 3.36468 10.7242 3.89043 10.9845 4.49171C11.2448 5.09298 11.3749 5.73464 11.3749 6.41669C11.3749 7.02395 11.2719 7.59719 11.0658 8.1364C10.8598 8.67561 10.575 9.16433 10.2116 9.60258L12.5416 11.9325L11.9235 12.5417Z" fill="#9BA5B7"/>
</g>
</svg>
