<svg width="28" height="28" viewBox="0 0 28 28" fill="none" xmlns="http://www.w3.org/2000/svg">
<path d="M2.8 16.8C2.03 16.8 1.37083 16.5258 0.8225 15.9775C0.274167 15.4292 0 14.77 0 14C0 13.23 0.274167 12.5708 0.8225 12.0225C1.37083 11.4742 2.03 11.2 2.8 11.2C3.57 11.2 4.22917 11.4742 4.7775 12.0225C5.32583 12.5708 5.6 13.23 5.6 14C5.6 14.77 5.32583 15.4292 4.7775 15.9775C4.22917 16.5258 3.57 16.8 2.8 16.8ZM5.11 24.78L3.15 22.82L9.24 16.73L11.2 18.69L5.11 24.78ZM9.31 11.2L3.22 5.11L5.18 3.15L11.27 9.24L9.31 11.2ZM14 28C13.23 28 12.5708 27.7258 12.0225 27.1775C11.4742 26.6292 11.2 25.97 11.2 25.2C11.2 24.43 11.4742 23.7708 12.0225 23.2225C12.5708 22.6742 13.23 22.4 14 22.4C14.77 22.4 15.4292 22.6742 15.9775 23.2225C16.5258 23.7708 16.8 24.43 16.8 25.2C16.8 25.97 16.5258 26.6292 15.9775 27.1775C15.4292 27.7258 14.77 28 14 28ZM14 5.6C13.23 5.6 12.5708 5.32583 12.0225 4.7775C11.4742 4.22917 11.2 3.57 11.2 2.8C11.2 2.03 11.4742 1.37083 12.0225 0.8225C12.5708 0.274167 13.23 0 14 0C14.77 0 15.4292 0.274167 15.9775 0.8225C16.5258 1.37083 16.8 2.03 16.8 2.8C16.8 3.57 16.5258 4.22917 15.9775 4.7775C15.4292 5.32583 14.77 5.6 14 5.6ZM18.69 11.27L16.73 9.24L22.89 3.15L24.85 5.11L18.69 11.27ZM22.89 24.78L16.8 18.69L18.76 16.73L24.85 22.82L22.89 24.78ZM25.2 16.8C24.43 16.8 23.7708 16.5258 23.2225 15.9775C22.6742 15.4292 22.4 14.77 22.4 14C22.4 13.23 22.6742 12.5708 23.2225 12.0225C23.7708 11.4742 24.43 11.2 25.2 11.2C25.97 11.2 26.6292 11.4742 27.1775 12.0225C27.7258 12.5708 28 13.23 28 14C28 14.77 27.7258 15.4292 27.1775 15.9775C26.6292 16.5258 25.97 16.8 25.2 16.8Z" fill="#00D4E7"/>
</svg>
