<?xml version="1.0" encoding="utf-8"?>
<!-- Generator: Adobe Illustrator 27.1.1, SVG Export Plug-In . SVG Version: 6.00 Build 0)  -->
<svg version="1.1" xmlns="http://www.w3.org/2000/svg" xmlns:xlink="http://www.w3.org/1999/xlink" x="0px" y="0px"
	 viewBox="0 0 100 100" style="enable-background:new 0 0 100 100;" xml:space="preserve">
<style type="text/css">
	.st0{fill:#FFFFFF;}
	.st1{fill:#FFFFFF;stroke:#303030;stroke-miterlimit:10;}
	.st2{fill:#303030;}
	.st3{fill:#FF9C15;stroke:#303030;stroke-miterlimit:10;}
	.st4{fill:none;stroke:#000000;stroke-linecap:round;stroke-linejoin:round;stroke-miterlimit:10;}
	.st5{fill:#FFFFFF;stroke:#303030;stroke-linecap:round;stroke-linejoin:round;stroke-miterlimit:10;}
	.st6{fill:none;stroke:#000000;stroke-width:2;stroke-linecap:round;stroke-linejoin:round;stroke-miterlimit:10;}
	.st7{fill:none;stroke:#000000;stroke-width:3;stroke-linecap:round;stroke-linejoin:round;stroke-miterlimit:10;}
	.st8{fill:#434343;}
	.st9{fill:#444444;}
	.st10{fill:#3D6666;}
	.st11{clip-path:url(#SVGID_00000031170833021699109560000015497344810103633024_);fill:#DBDBDB;}
	.st12{clip-path:url(#SVGID_00000031170833021699109560000015497344810103633024_);}
	.st13{fill:#FFFFFF;stroke:#303030;stroke-width:0.5226;stroke-miterlimit:10;}
	.st14{fill:#00CDFE;stroke:#303030;stroke-width:0.5226;stroke-miterlimit:10;}
</style>
<g id="BACKGROUND">
</g>
<g id="OBJECTS">
	<g>
		<g>
			<defs>
				<circle id="SVGID_1_" cx="50" cy="50" r="50"/>
			</defs>
			<clipPath id="SVGID_00000013189235126034318500000007615305778116313990_">
				<use xlink:href="#SVGID_1_"  style="overflow:visible;"/>
			</clipPath>
			
				<circle style="clip-path:url(#SVGID_00000013189235126034318500000007615305778116313990_);fill:#DBDBDB;" cx="50" cy="50" r="50"/>
			<g style="clip-path:url(#SVGID_00000013189235126034318500000007615305778116313990_);">
				<g>
					<g>
						<path class="st13" d="M60.6,57.6l-11.4-0.7c0,0,0,2-0.1,5.2c0-3.2-0.1-5.2-0.1-5.2l-11.4,0.7c0,0-1.8,15.9-1.4,19.5
							c0.5,3.9,2.4,8,3.8,11.6c1,2.5,2,4.9,3.1,7.4c1,2.2,2,4.9,4,6.2c2.6,1.8,5.5-1,6.8-3.4c1.4-2.6,2.4-5.5,3.5-8.3
							c1.7-4.2,3.7-8.7,4.5-13.2c0-0.1,0-0.2,0-0.3C62.5,73.5,60.6,57.6,60.6,57.6z"/>
						<path class="st2" d="M49.4,67.6l-9.1-10.1l-2.7,0.2c0,0-1.5,13.3-1.5,18.4l14.4-6.8L49.4,67.6z"/>
					</g>
					<g>
						<path class="st13" d="M34.6,41.1c0,0-2.1-3.5-3.2,1.4c-1.2,4.9,3.9,7.9,3.9,7.9L34.6,41.1z"/>
						<path class="st13" d="M64.1,41.1c0,0,2.1-3.5,3.2,1.4c1.2,4.9-3.9,7.9-3.9,7.9L64.1,41.1z"/>
					</g>
				</g>
				<g>
					<g>
						<path class="st2" d="M94.3,83.2c-0.6-1.5-34.4-18.4-34.4-18.4l-11.1,0.3l-11.1-0.3c0,0-33.8,16.9-34.4,18.4
							c-0.6,1.5-4,19.3-4,19.3h47.8h3.3h47.8C98.2,102.5,94.9,84.7,94.3,83.2z"/>
						<path class="st8" d="M71.4,78.3l-2.8-9.1c-5.1-2.6-8.9-4.4-8.9-4.4l-11,0.3l-11-0.3c0,0-3.8,1.9-8.9,4.4l-2.8,9.1l9.5,4.7
							l-8,5.6l8.8,13.8h10.9H48h1.5h0.8h10.9l8.8-13.8l-8-5.6L71.4,78.3z"/>
						<path class="st13" d="M37.3,58.9l-1.9,7c1.6,6.4,6.9,29.1,8.7,36.6h3h3.3h4.5l7.2-36.6c0-0.8-0.1-1-0.1-1"/>
						<path class="st14" d="M50.8,85.3l4.6-8.3l-6.8-5.6l-5.7,5.9l4.3,8l-3.3,16.6c0.1,0.3,0.1,0.5,0.2,0.7h3h3.3h4.5l0.2-1.2
							L50.8,85.3z"/>
						<path class="st13" d="M60.7,60.6l1.3,5.3l-3.4,17.2l-9.9-9.7l-9.4,9.2c-1.7-7-3.2-13.6-4-16.6l1.8-6.5"/>
					</g>
				</g>
				<path class="st13" d="M61.8,26.6c-6.6-4.4-18.5-4.4-25.1,0c-3,2-2.7,7.4-2.7,7.4s1.5,24.1,2.4,25.3c0.8,1.2,7.3,9.4,8.9,10.1
					c1.9,0.8,6,0.8,7.9,0c1.7-0.7,8.1-8.9,8.9-10.1c0.8-1.2,2.4-25.3,2.4-25.3S64.9,28.7,61.8,26.6z"/>
				<path class="st2" d="M66.1,16.5c0,0,1.7-1.3,0.4-2.7c-1.3-1.4-4.3-1.1-4.3-1.1s-1.4-3.7-4-5.6c-2.6-1.9-0.2,2-0.2,2
					s-6.9-3.7-10.8-3c-3.9,0.7,0.4,1.9,0.4,1.9s-15.9,0.5-19,7.6c-3.1,7.1,2.3,11.8,3.2,14.1c1,2.4,1.1,9.9,1.1,9.9l2.1,2.6
					l-0.2-1.2c0,0,1.1-1.9,1.1-2.7c0-0.8-0.5-3-0.5-4.8c0-0.7,0.6-2,1.6-3.3c0.5,0.3,1.2,0.6,2.1,0.8c2.9,0.8,5.2,0.4,4.6-0.4
					c-0.6-0.7-1.2-2.3-1.2-2.3s1.9,1.9,5.6,2c3.7,0.1,3.6-0.6,2-2c-0.7-0.7-1.3-1.5-1.6-2.3c5.4,0.3,12.1,1.4,13.2,2.7
					c1.5,1.8,0.5,5,0.6,6.9c0.1,1.9,1.7,5.3,1.7,5.3s1.6-7.2,1.6-8.7c0-1.4,2.1-4.8,3.7-8.6C70.9,20.1,66.1,16.5,66.1,16.5z"/>
			</g>
		</g>
	</g>
</g>
</svg>
