<svg width="16" height="21" viewBox="0 0 16 21" fill="none" xmlns="http://www.w3.org/2000/svg">
<path d="M16.0007 21.0002H14.0007V19.0002C14.0007 17.3433 12.6576 16.0002 11.0007 16.0002H5.00073C3.34388 16.0002 2.00073 17.3433 2.00073 19.0002V21.0002H0.000732422V19.0002C0.000732422 16.2388 2.23931 14.0002 5.00073 14.0002H11.0007C13.7621 14.0002 16.0007 16.2388 16.0007 19.0002V21.0002ZM8.00073 12.0002C4.68702 12.0002 2.00073 9.31388 2.00073 6.00018C2.00073 2.68647 4.68702 0.000175476 8.00073 0.000175476C11.3144 0.000175476 14.0007 2.68647 14.0007 6.00018C14.0007 9.31388 11.3144 12.0002 8.00073 12.0002ZM8.00073 10.0002C10.2098 10.0002 12.0007 8.20932 12.0007 6.00018C12.0007 3.79104 10.2098 2.00018 8.00073 2.00018C5.79159 2.00018 4.00073 3.79104 4.00073 6.00018C4.00073 8.20932 5.79159 10.0002 8.00073 10.0002Z" fill="#9BA5B7"/>
</svg>
